<?xml version="1.0" encoding="utf-8"?>
<!-- Generator: Adobe Illustrator 16.0.4, SVG Export Plug-In . SVG Version: 6.00 Build 0)  -->
<!DOCTYPE svg PUBLIC "-//W3C//DTD SVG 1.1//EN" "http://www.w3.org/Graphics/SVG/1.1/DTD/svg11.dtd">
<svg version="1.1" id="Calque_1" xmlns="http://www.w3.org/2000/svg" xmlns:xlink="http://www.w3.org/1999/xlink" x="0px" y="0px"
	 width="32px" height="32px" viewBox="0 0 32 32" enable-background="new 0 0 32 32" xml:space="preserve">
<path fill="#1D1D1B" d="M21.088,20.614c-1.148,0-2.08,1.29-2.08,2.879c0,1.59,0.932,2.879,2.08,2.879s2.08-1.289,2.08-2.879
	C23.166,21.901,22.234,20.614,21.088,20.614z M28.33,13.121c0.236-0.584,0.248-3.904-1.014-7.082c0,0-2.899,0.317-7.283,3.326
	c-0.92-0.254-2.477-0.381-4.032-0.381c-1.557,0-3.112,0.128-4.034,0.381c-4.382-3.01-7.28-3.326-7.28-3.326
	c-1.262,3.178-1.253,6.498-1.014,7.082c-1.485,1.613-2.392,3.548-2.392,6.194c0,11.498,9.539,11.683,11.947,11.683
	c0.546,0,1.63,0.002,2.774,0.002c1.145-0.002,2.229-0.002,2.771-0.002c2.41,0,11.947-0.185,11.947-11.683
	C30.721,16.669,29.814,14.733,28.33,13.121z M16.045,29.583h-0.088c-6.035,0-10.736-0.723-10.736-6.586
	c0-1.405,0.498-2.709,1.674-3.791c1.966-1.805,5.29-0.85,9.062-0.85c0.014,0,0.03,0,0.045-0.002c0.016,0,0.03,0.002,0.043,0.002
	c3.773,0,7.098-0.955,9.062,0.85c1.176,1.082,1.672,2.387,1.672,3.791C26.779,28.862,22.081,29.583,16.045,29.583z M10.914,20.614
	c-1.149,0-2.08,1.29-2.08,2.879c0,1.59,0.931,2.879,2.08,2.879s2.08-1.289,2.08-2.879C12.994,21.901,12.063,20.614,10.914,20.614z"
	/>
</svg>
