<?xml version="1.0" encoding="utf-8"?>
<!-- Generator: Adobe Illustrator 16.0.4, SVG Export Plug-In . SVG Version: 6.00 Build 0)  -->
<!DOCTYPE svg PUBLIC "-//W3C//DTD SVG 1.1//EN" "http://www.w3.org/Graphics/SVG/1.1/DTD/svg11.dtd">
<svg version="1.1" id="Calque_1" xmlns="http://www.w3.org/2000/svg" xmlns:xlink="http://www.w3.org/1999/xlink" x="0px" y="0px"
	 width="32px" height="32px" viewBox="0 0 32 32" enable-background="new 0 0 32 32" xml:space="preserve">
<path fill="#1D1D1B" d="M8.384,5.521c0,1.644-1.214,2.976-3.212,2.976c-1.879,0-3.094-1.333-3.094-2.976
	c0-1.684,1.255-2.976,3.173-2.976C7.169,2.544,8.345,3.838,8.384,5.521z M2.236,29.998V10.847h5.952v19.151H2.236z M11.751,16.956
	c0-2.388-0.079-4.385-0.158-6.108h5.17l0.275,2.664h0.117c0.783-1.255,2.703-3.094,5.914-3.094c3.916,0,6.852,2.624,6.852,8.264V30
	h-5.951V19.386c0-2.468-0.863-4.152-3.016-4.152c-1.646,0-2.623,1.137-3.055,2.233c-0.158,0.392-0.195,0.939-0.195,1.487V30h-5.953
	L11.751,16.956L11.751,16.956z"/>
</svg>
