<?xml version="1.0" encoding="utf-8"?>
<!-- Generator: Adobe Illustrator 15.1.0, SVG Export Plug-In  -->
<!DOCTYPE svg [
    <!ENTITY ns_flows "http://ns.adobe.com/Flows/1.0/">
]>
<svg version="1.2" baseProfile="tiny"
     xmlns="http://www.w3.org/2000/svg" xmlns:xlink="http://www.w3.org/1999/xlink" xmlns:a="http://ns.adobe.com/AdobeSVGViewerExtensions/3.0/"
     x="0px" y="0px" width="72px" height="54px" viewBox="0 0 236 179" xml:space="preserve">
<defs>
</defs>
<path fill="#1D1D1D" d="M113.8,178.5H63C7,178.5,0,142,0,89.3C0,36.5,7,0,63,0h50.8V178.5z M85.3,21.5H61.8
    C37,21.5,28.5,39,28.5,89.3c0,52.3,9.8,67.8,33.3,67.8h23.5V21.5z"/>
<path fill="#1D1D1D" d="M151.2,21.5h23.5c24.8,0,33.3,17.5,33.3,67.8c0,1.2,0,2.3,0,3.4l27.8-27.8C232.9,25.6,220.4,0,173.5,0h-50.8
    v177.9l28.5-28.5V21.5z"/>
<path fill="#32859E" d="M207.6,106.4c-2.1,38.6-12.1,50.6-32.8,50.6H157l-21.5,21.5h38c56,0,63-36.5,63-89.3c0-4,0-7.9-0.1-11.6
    L207.6,106.4z"/>
</svg>