<?xml version="1.0" encoding="utf-8"?>
<!-- Generator: Adobe Illustrator 15.1.0, SVG Export Plug-In  -->
<!DOCTYPE svg [
	<!ENTITY ns_flows "http://ns.adobe.com/Flows/1.0/">
]>
<svg version="1.2" baseProfile="tiny"
	 xmlns="http://www.w3.org/2000/svg" xmlns:xlink="http://www.w3.org/1999/xlink" xmlns:a="http://ns.adobe.com/AdobeSVGViewerExtensions/3.0/"
	 x="0px" y="0px" width="700px" height="236px" viewBox="0 0 1639 552" xml:space="preserve">
<defs>
</defs>
<path fill="#1D1D1B" stroke="#1D1D1B" stroke-width="2" stroke-miterlimit="10" d="M216.284,328.83
	c-0.078,5.072,3.24,10.168,9.964,14.051l135.389,78.166c13.237,7.643,34.634,7.684,47.79,0.088l134.544-77.68
	c6.637-3.832,9.903-8.875,9.815-13.914l0.007-0.006v-19.408l-167.222-81.963l-170.296,81.25v19.408L216.284,328.83"/>
<path fill="#1D1D1B" stroke="#1D1D1B" stroke-width="2" stroke-miterlimit="10" d="M1.509,204.831
	c-0.078,5.071,3.24,10.168,9.964,14.05l135.389,78.167c13.237,7.643,34.634,7.684,47.79,0.088l134.544-77.68
	c6.637-3.832,9.903-8.875,9.815-13.913l0.007-0.007v-19.407l-167.222-81.964L1.5,185.415v19.407L1.509,204.831"/>
<path fill="#1D1D1B" stroke="#1D1D1B" stroke-width="2" stroke-miterlimit="10" d="M2.849,451.057
	c-0.078,5.07,3.24,10.168,9.964,14.05l135.389,78.167c13.237,7.643,34.634,7.683,47.79,0.087l134.544-77.68
	c6.637-3.833,9.903-8.876,9.815-13.913l0.007-0.008v-19.406l-167.222-81.965L2.84,431.641v19.406L2.849,451.057"/>
<path fill="#1D1D1B" stroke="#1D1D1B" stroke-width="2" stroke-miterlimit="10" d="M429.717,205.604
	c-0.078,5.071,3.24,10.168,9.964,14.05L575.07,297.82c13.237,7.643,34.634,7.684,47.79,0.088l134.544-77.68
	c6.637-3.832,9.903-8.875,9.815-13.913l0.007-0.007v-19.407l-167.222-81.964l-170.296,81.251v19.407L429.717,205.604"/>
<path fill="#FFFFFF" stroke="#1D1D1B" stroke-width="3" stroke-miterlimit="10" d="M330.385,420.07
	c13.239,7.643,13.305,19.996,0.15,27.592l-134.545,77.679c-13.153,7.595-34.55,7.558-47.789-0.086l-135.39-78.167
	c-13.237-7.643-13.303-19.998-0.149-27.592l134.544-77.68c13.155-7.596,34.553-7.557,47.79,0.086L330.385,420.07z"/>
<path fill="#FFFFFF" stroke="#1D1D1B" stroke-width="3" stroke-miterlimit="10" d="M543.82,296.844
	c13.238,7.643,13.305,19.996,0.15,27.592l-134.545,77.678c-13.154,7.596-34.55,7.559-47.789-0.086l-135.39-78.166
	c-13.237-7.643-13.305-19.998-0.15-27.592l134.545-77.679c13.155-7.596,34.552-7.557,47.789,0.086L543.82,296.844z"/>
<path fill="#FFFFFF" stroke="#1D1D1B" stroke-width="3" stroke-miterlimit="10" d="M757.252,173.618
	c13.239,7.644,13.307,19.996,0.152,27.591l-134.545,77.68c-13.156,7.594-34.55,7.557-47.789-0.088l-135.39-78.167
	c-13.237-7.643-13.306-19.996-0.15-27.591l134.545-77.68c13.155-7.595,34.551-7.556,47.788,0.087L757.252,173.618z"/>
<path fill="#FFFFFF" stroke="#1D1D1B" stroke-width="3" stroke-miterlimit="10" d="M329.045,172.843
	c13.239,7.644,13.305,19.996,0.15,27.592l-134.545,77.678c-13.154,7.596-34.55,7.559-47.789-0.086l-135.39-78.167
	c-13.237-7.643-13.305-19.997-0.15-27.592L145.868,94.59c13.154-7.596,34.551-7.557,47.788,0.086L329.045,172.843z"/>
<polygon fill="#1D1D1B" points="65.966,194.766 91.895,224.706 101.266,219.295 152.092,248.64 155.686,246.566 159.28,244.491 
	108.453,215.146 117.824,209.736 "/>
<polygon fill="#1D1D1B" points="370.459,370.566 344.531,340.625 335.16,346.035 284.333,316.691 280.74,318.766 277.146,320.842 
	327.972,350.186 318.602,355.596 "/>
<polygon fill="#1D1D1B" points="101.149,474.252 152.846,459.469 143.417,454.025 193.925,424.863 190.309,422.775 186.693,420.688 
	136.184,449.85 126.755,444.406 "/>
<polygon fill="#1D1D1B" points="617.178,176.324 565.482,191.107 574.912,196.551 524.402,225.712 528.018,227.8 531.634,229.888 
	582.144,200.727 591.573,206.17 "/>
<path fill="#1D1D1B" d="M976.106,156.068c-0.504,0.292-1.225,0.451-1.99,0.402c-1.113-0.072-27.584-1.898-56.406-12.908
	c-26.578-10.152-60.02-30.361-68.381-68.977c-12.016-55.48-78.725-70.952-143.514-72.323c-11.812-0.25-37.543-0.792-37.543-0.792
	s9.94-0.76,21.352-1.141c13.953-0.463,30.635-0.504,40.627,0.299c17.084,1.372,32.574,3.833,46.359,7.374
	c44.418,11.411,70.514,33.7,77.565,66.249c8.115,37.479,40.385,57.063,66.025,66.891c27.852,10.676,54.17,12.509,54.432,12.526
	c1.342,0.089,2.313,0.786,2.168,1.56C976.739,155.56,976.483,155.852,976.106,156.068z"/>
<line fill="#FFFFFF" stroke="#1D1D1B" stroke-width="2" stroke-linecap="round" stroke-linejoin="bevel" stroke-miterlimit="10" x1="1637.37" y1="419.816" x2="1637.37" y2="395.279"/>
<line fill="#FFFFFF" stroke="#1D1D1B" stroke-width="2" stroke-linecap="round" stroke-linejoin="bevel" stroke-miterlimit="10" x1="909.397" y1="265.611" x2="909.397" y2="240.074"/>
<path fill="#1D1D1B" stroke="#1D1D1B" stroke-width="2" stroke-linecap="round" stroke-linejoin="bevel" stroke-miterlimit="10" d="
	M1478.903,222.227c165.891,95.776,208.357,226.545,94.852,292.077c-113.504,65.531-340.002,41.014-505.891-54.764
	c-165.891-95.777-208.357-226.544-94.852-292.076C1086.516,101.932,1313.012,126.449,1478.903,222.227z"/>
<path fill="#FFFFFF" stroke="#1D1D1B" stroke-width="3" stroke-linecap="round" stroke-linejoin="bevel" stroke-miterlimit="10" d="
	M1478.903,203.164c165.891,95.776,208.357,226.546,94.852,292.077c-113.504,65.533-340.002,41.016-505.891-54.763
	C901.973,344.7,859.506,213.935,973.012,148.402C1086.516,82.87,1313.012,107.389,1478.903,203.164z"/>
<path fill="none" stroke="#1D1D1B" stroke-width="2" stroke-linecap="round" stroke-linejoin="bevel" stroke-miterlimit="10" d="
	M1214.915,187.974c-148.584-67.87-241.902-39.571-241.902-39.571"/>
<path fill="none" stroke="#1D1D1B" stroke-width="2" stroke-linecap="round" stroke-linejoin="bevel" stroke-miterlimit="10" d="
	M1023.661,412.107c0,0,41.088-153.736,191.254-224.134"/>
<path fill="#FFFFFF" stroke="#1D1D1B" stroke-width="3" stroke-linecap="round" stroke-linejoin="bevel" stroke-miterlimit="10" d="
	M1214.409,187.976c-135.607-61.943-225.166-43.783-239.775-40.139c-0.539,0.303-1.09,0.595-1.623,0.902
	c-102.51,59.184-77.797,171.574,50.152,263.347C1023.43,411.088,1064.733,258.144,1214.409,187.976z"/>
<path fill="#1D1D1B" stroke="#1D1D1B" stroke-width="2" stroke-linecap="round" stroke-linejoin="bevel" stroke-miterlimit="10" d="
	M1015.95,388.968c-61.15-47.974-94.564-101.079-92.271-147.546c1.586-32.13,20.997-59.873,56.145-80.25
	c6.352-1.437,22.586-4.447,46.996-4.447c34.298,0,87.512,5.981,154.561,32.563c-64.838,37.671-106.41,89.884-130.686,129.242
	C1033.112,347.036,1022.121,372.479,1015.95,388.968z"/>
<path fill="none" stroke="#1D1D1B" stroke-width="3" stroke-linecap="round" stroke-linejoin="bevel" stroke-miterlimit="10" d="
	M1214.915,187.974c97.168-43.168,214.85-10.331,214.85-10.331"/>
<g>
	<g>
		<path fill="#1D1D1B" d="M1100.651,392.578c3.16-7.115,4.823-10.615,8.333-17.516c1.256,0.848,1.911,1.282,3.271,2.172
			c0.054-0.104,0.081-0.159,0.135-0.264c-0.651-6.578,1.17-12.836,5.44-20.174c4.638-7.968,10.201-12.563,15.206-12.302
			c0.066-0.099,0.1-0.148,0.166-0.247c-2.17-4.784,0.034-12.797,5.906-19.615c5.915-6.868,13.396-15.01,24.189-9.732
			c11.268,5.936,22.314,12.287,33.248,18.814c-5.42,6.318-8.017,9.552-13,16.164c-10.72-6.136-21.469-12.223-32.316-18.132
			c-3.416-1.854-6.574-1.012-9.99,3.719c-3.854,5.338-4.152,9.932,0.556,12.573c10.26,5.765,20.521,11.526,30.811,17.235
			c-4.605,6.88-6.807,10.39-11.029,17.57c-10.956-5.914-21.808-12.024-32.548-18.322c-3.275-1.922-6.082-1.007-8.918,4.039
			c-3.199,5.693-3.269,10.602,1.244,13.369c10.13,6.197,20.466,12.057,30.949,17.635c-3.908,7.47-5.774,11.284-9.379,19.093
			C1128.388,410.68,1113.935,402.561,1100.651,392.578z"/>
		<path fill="#1D1D1B" d="M1179.069,280.084c12.396-11.748,30.379-20.184,48.255-10.284c17.117,9.479,10.631,25.918-1.888,36.202
			c-14.879,12.224-29.618,17.74-47.459,8.502C1160.372,305.388,1169.268,289.373,1179.069,280.084z M1217.231,300.715
			c6.451-5.857,3.865-10.988-7.162-17.179c-11.028-6.191-17.434-6.091-23.872-0.153c-7.818,7.21-2.398,10.76,6.642,15.784
			C1201.877,304.19,1209.399,307.826,1217.231,300.715z"/>
		<path fill="#1D1D1B" d="M1289.071,252.418c-0.117,0.062-0.178,0.093-0.295,0.154c-0.043,5.416-5.549,11.566-13.339,15.801
			c-9.622,5.23-19.776,10.099-30.96,3.305c-10.371-6.72-21.289-12.599-32.687-17.385c7.117-5.229,10.787-7.755,18.32-12.587
			c10.799,4.8,20.665,9.992,30.788,16.097c4.431,2.874,8.592,2.563,14.435-0.804c6.696-3.858,8.256-7.6,3.349-10.804
			c-9.901-5.97-19.5-10.941-30.105-15.538c7.902-4.397,11.949-6.481,20.199-10.359c16.614,6.976,30.794,15.317,44.932,26.496
			c-8.059,3.569-12.003,5.481-19.691,9.514C1292.056,254.709,1291.068,253.93,1289.071,252.418z"/>
		<path fill="#1D1D1B" d="M1326.393,225.722c0.587,0.401,0.882,0.603,1.463,1.012c3.793,2.668,10.168,3.159,17.896,0.832
			c6.905-2.08,10.033-4.611,6.583-7.121c-2.811-2.044-8.009-1.899-13.299-1.135c-7.569,1.119-11.322,1.776-18.75,3.262
			c-10.504,1.671-22.74,4.786-31.084,0.07c-11.42-6.455,10.723-15.932,16.167-17.702c13.314-4.33,29.922-7.428,44.714-1.871
			c0.84,0.369,1.258,0.557,2.088,0.939c-8.316,1.587-12.444,2.55-20.596,4.758c-4.953-2.346-10.196-2.684-17.424-0.425
			c-5.622,1.757-8.515,4.19-5.089,5.784c2.343,1.09,6.496,1.207,15.321-0.431c6.404-1.166,9.635-1.683,16.146-2.57
			c11.102-0.978,23.81-2.88,33.265,3.765c12.909,9.072-17.082,17.583-20.719,18.697c-13.408,4.11-31.472,10.107-44.843,0.772
			c-0.614-0.425-0.923-0.635-1.542-1.052C1314.433,230.037,1318.377,228.51,1326.393,225.722z"/>
		<path fill="#1D1D1B" d="M1393.824,206.241c1.548,0.892,2.311,1.351,3.804,2.295c5.47,3.457,13.22,7.063,22.242,6.852
			c8.141-0.19,8.943-2.359,4.6-6.035c8.755,0.27,13.147,0.604,21.919,1.742c13.687,11.865-13.94,10.49-19.257,10.619
			c-21.731,0.526-40.49-3.938-59.403-13.976c-18.828-9.993-6.752-14.251,8.214-14.572c20.046-0.43,43.053,3.721,62.602,13.019
			c1.228,0.6,1.835,0.904,3.027,1.533C1425.767,205.511,1409.734,205.096,1393.824,206.241z M1410.55,201.77
			c-8.676-3.75-15.552-5.545-25.163-5.4c-9.276,0.14-6.061,2.667-1.203,4.902c0.815,0.375,1.221,0.565,2.024,0.953
			C1395.907,201.536,1400.792,201.426,1410.55,201.77z"/>
	</g>
</g>
</svg>
