<?xml version="1.0" encoding="utf-8"?>
<!-- Generator: Adobe Illustrator 16.0.4, SVG Export Plug-In . SVG Version: 6.00 Build 0)  -->
<!DOCTYPE svg PUBLIC "-//W3C//DTD SVG 1.1//EN" "http://www.w3.org/Graphics/SVG/1.1/DTD/svg11.dtd">
<svg version="1.1" id="Calque_1" xmlns="http://www.w3.org/2000/svg" xmlns:xlink="http://www.w3.org/1999/xlink" x="0px" y="0px"
	 width="32px" height="32px" viewBox="0 0 32 32" enable-background="new 0 0 32 32" xml:space="preserve">
<path fill="#1D1D1B" d="M29.045,19.067c0.201-0.938,0.307-1.913,0.307-2.917c0-7.501-5.912-13.584-13.205-13.584
	c-0.77,0-1.524,0.07-2.257,0.198C12.706,2,11.312,1.557,9.813,1.557c-4.228,0-7.656,3.528-7.656,7.879
	c0,1.454,0.386,2.815,1.054,3.984c-0.176,0.882-0.269,1.795-0.269,2.731c0,7.504,5.913,13.583,13.205,13.583
	c0.825,0,1.634-0.076,2.416-0.226c1.078,0.597,2.312,0.935,3.62,0.935c4.23,0,7.659-3.527,7.659-7.878
	C29.843,21.309,29.554,20.119,29.045,19.067L29.045,19.067z M22.917,22.646c-0.61,0.887-1.514,1.592-2.684,2.094
	c-1.157,0.494-2.546,0.748-4.126,0.748c-1.897,0-3.485-0.344-4.727-1.021c-0.888-0.491-1.62-1.16-2.175-1.983
	c-0.561-0.834-0.845-1.661-0.845-2.454c0-0.498,0.185-0.929,0.551-1.284c0.363-0.349,0.825-0.528,1.379-0.528
	c0.453,0,0.845,0.139,1.163,0.415c0.304,0.266,0.563,0.658,0.772,1.163c0.235,0.552,0.489,1.018,0.758,1.384
	c0.259,0.353,0.632,0.648,1.108,0.883c0.479,0.231,1.123,0.351,1.918,0.351c1.091,0,1.986-0.238,2.658-0.712
	c0.659-0.465,0.978-1.018,0.978-1.696c0-0.536-0.166-0.959-0.51-1.29c-0.358-0.342-0.834-0.612-1.409-0.799
	c-0.6-0.192-1.416-0.4-2.422-0.617c-1.371-0.302-2.535-0.659-3.461-1.065c-0.944-0.412-1.709-0.987-2.268-1.706
	c-0.566-0.728-0.854-1.646-0.854-2.723c0-1.026,0.3-1.952,0.896-2.75c0.592-0.792,1.452-1.409,2.562-1.831
	c1.097-0.417,2.401-0.629,3.876-0.629c1.179,0,2.217,0.141,3.081,0.417c0.871,0.28,1.605,0.657,2.181,1.119
	c0.581,0.468,1.012,0.968,1.283,1.484c0.274,0.525,0.412,1.045,0.412,1.549c0,0.486-0.18,0.927-0.54,1.312
	c-0.362,0.386-0.817,0.582-1.355,0.582c-0.487,0-0.871-0.124-1.139-0.364c-0.246-0.224-0.503-0.576-0.786-1.079
	c-0.331-0.645-0.729-1.153-1.186-1.509c-0.446-0.348-1.188-0.525-2.207-0.525c-0.945,0-1.717,0.196-2.288,0.583
	c-0.553,0.373-0.818,0.799-0.818,1.303c0,0.31,0.085,0.568,0.263,0.79c0.188,0.236,0.452,0.443,0.788,0.615
	c0.346,0.179,0.704,0.322,1.062,0.424c0.367,0.104,0.983,0.259,1.829,0.461c1.07,0.236,2.051,0.501,2.919,0.785
	c0.88,0.289,1.639,0.647,2.26,1.061c0.632,0.424,1.134,0.967,1.487,1.619c0.354,0.651,0.533,1.456,0.533,2.39
	C23.842,20.735,23.534,21.754,22.917,22.646L22.917,22.646z"/>
</svg>
